# xmcd
#
# Track frame offsets: 
#        150
#        15094
#        39338
#        54475
#        70626
#        92458
#        106678
#        135215
#        153279
#        169193
#        186122
#        210423
#
# Disc length: 2984 seconds
#
# Revision: 2
# Processed by: cddbd v1.5.2PL0 Copyright (c) Steve Scherf et al.
# Submitted via: ExactAudioCopy v0.99pb5
#
DISCID=7e0ba60c
DTITLE=Julian Sas - Spirits On The Rise
DYEAR=2000
DGENRE=Hard Blues
TTITLE0=Mean Street
TTITLE1=Morning Rain
TTITLE2=Right Thing
TTITLE3=Hear My Call
TTITLE4=I Believe To My Soul
TTITLE5=If I Had Wings
TTITLE6=Losing Ground
TTITLE7=Roll On
TTITLE8=Loneliness
TTITLE9=Tale Spreader
TTITLE10=A Light In The Dark
TTITLE11=State Of Mind
EXTD=
EXTT0=
EXTT1=
EXTT2=
EXTT3=
EXTT4=
EXTT5=
EXTT6=
EXTT7=
EXTT8=
EXTT9=
EXTT10=
EXTT11=
PLAYORDER=
